<svg width="129" height="42" viewBox="0 0 129 42" fill="none" xmlns="http://www.w3.org/2000/svg">
<path d="M5.68266 11.6927V29.8823H1.9473V11.6927H5.68266ZM17.5259 16.3651H20.7865V29.4326C20.7865 30.6652 20.5117 31.7104 19.962 32.5683C19.4206 33.4344 18.6627 34.0882 17.6883 34.5296C16.7138 34.9794 15.5812 35.2042 14.2902 35.2042C13.7239 35.2042 13.1242 35.1293 12.4913 34.9794C11.8666 34.8295 11.267 34.5963 10.6923 34.2798C10.1259 33.9633 9.65122 33.5635 9.26811 33.0805L10.8547 30.9567C11.2711 31.4397 11.7542 31.8145 12.3039 32.081C12.8535 32.3559 13.4615 32.4933 14.1278 32.4933C14.7774 32.4933 15.3271 32.3725 15.7769 32.131C16.2266 31.8978 16.5722 31.5522 16.8138 31.0941C17.0553 30.6444 17.1761 30.0988 17.1761 29.4575V19.4883L17.5259 16.3651ZM8.43109 23.2861V23.0237C8.43109 21.991 8.55601 21.054 8.80587 20.2128C9.06406 19.3633 9.42635 18.6346 9.89275 18.0266C10.3675 17.4186 10.9421 16.9481 11.6168 16.6149C12.2914 16.2818 13.0534 16.1152 13.9029 16.1152C14.8024 16.1152 15.5562 16.2818 16.1642 16.6149C16.7721 16.9481 17.2718 17.4228 17.6633 18.0391C18.0547 18.6471 18.3587 19.3675 18.5753 20.2004C18.8001 21.0249 18.975 21.9285 19.1 22.9113V23.486C18.975 24.4271 18.7876 25.3016 18.5378 26.1095C18.2879 26.9173 17.959 27.6253 17.5509 28.2332C17.1428 28.8329 16.6347 29.2993 16.0267 29.6324C15.4271 29.9656 14.7108 30.1322 13.878 30.1322C13.0451 30.1322 12.2914 29.9614 11.6168 29.62C10.9505 29.2785 10.38 28.7996 9.90524 28.1833C9.43051 27.567 9.06406 26.8424 8.80587 26.0095C8.55601 25.1767 8.43109 24.2689 8.43109 23.2861ZM12.029 23.0237V23.2861C12.029 23.8441 12.0832 24.3646 12.1914 24.8477C12.2997 25.3307 12.4663 25.7597 12.6911 26.1345C12.9243 26.5009 13.2117 26.7882 13.5531 26.9965C13.9029 27.1963 14.3152 27.2963 14.7899 27.2963C15.4479 27.2963 15.9851 27.1589 16.4015 26.884C16.8179 26.6009 17.1303 26.2136 17.3385 25.7222C17.5467 25.2308 17.6675 24.6645 17.7008 24.0232V22.3866C17.6841 21.8619 17.6133 21.3913 17.4884 20.9749C17.3635 20.5502 17.1886 20.1879 16.9637 19.888C16.7388 19.5882 16.4473 19.355 16.0892 19.1884C15.7311 19.0219 15.3063 18.9386 14.8149 18.9386C14.3402 18.9386 13.9279 19.0468 13.5781 19.2634C13.2367 19.4716 12.9493 19.7589 12.7161 20.1254C12.4913 20.4919 12.3205 20.9249 12.2039 21.4247C12.0873 21.916 12.029 22.4491 12.029 23.0237ZM27.1079 19.2509V29.8823H23.5099V16.3651H26.883L27.1079 19.2509ZM26.5832 22.649H25.6087C25.6087 21.6495 25.7378 20.75 25.996 19.9505C26.2542 19.1426 26.6165 18.4555 27.0829 17.8892C27.5493 17.3145 28.1031 16.8773 28.7444 16.5774C29.3941 16.2693 30.1186 16.1152 30.9182 16.1152C31.5512 16.1152 32.13 16.2068 32.6547 16.39C33.1794 16.5733 33.6291 16.8648 34.0039 17.2645C34.387 17.6643 34.6785 18.1932 34.8784 18.8511C35.0866 19.5091 35.1907 20.3128 35.1907 21.2622V29.8823H31.5678V21.2498C31.5678 20.6501 31.4845 20.1837 31.318 19.8506C31.1514 19.5174 30.9057 19.2842 30.5809 19.151C30.2644 19.0094 29.873 18.9386 29.4066 18.9386C28.9235 18.9386 28.5029 19.0344 28.1448 19.2259C27.795 19.4175 27.5035 19.684 27.2703 20.0255C27.0454 20.3586 26.8747 20.75 26.7581 21.1998C26.6415 21.6495 26.5832 22.1326 26.5832 22.649ZM41.7245 16.3651V29.8823H38.1141V16.3651H41.7245ZM37.8892 12.8421C37.8892 12.3174 38.0724 11.8843 38.4389 11.5428C38.8053 11.2013 39.2967 11.0306 39.913 11.0306C40.521 11.0306 41.0082 11.2013 41.3747 11.5428C41.7495 11.8843 41.9369 12.3174 41.9369 12.8421C41.9369 13.3668 41.7495 13.7999 41.3747 14.1413C41.0082 14.4828 40.521 14.6535 39.913 14.6535C39.2967 14.6535 38.8053 14.4828 38.4389 14.1413C38.0724 13.7999 37.8892 13.3668 37.8892 12.8421ZM51.319 16.3651V18.9136H43.4485V16.3651H51.319ZM45.3974 13.0295H48.9953V25.8096C48.9953 26.2011 49.0453 26.5009 49.1452 26.7091C49.2535 26.9173 49.4117 27.0631 49.62 27.1464C49.8282 27.2213 50.0905 27.2588 50.407 27.2588C50.6319 27.2588 50.8318 27.2505 51.0067 27.2338C51.1899 27.2088 51.344 27.1838 51.4689 27.1589L51.4814 29.8073C51.1732 29.9073 50.8401 29.9864 50.482 30.0447C50.1238 30.103 49.7282 30.1322 49.2951 30.1322C48.5039 30.1322 47.8127 30.0031 47.2213 29.7449C46.6383 29.4784 46.1886 29.0536 45.8721 28.4706C45.5556 27.8876 45.3974 27.1214 45.3974 26.1719V13.0295ZM59.5892 30.1322C58.5398 30.1322 57.5987 29.9656 56.7659 29.6324C55.933 29.291 55.2251 28.8204 54.6421 28.2208C54.0674 27.6211 53.626 26.9257 53.3178 26.1345C53.0097 25.3349 52.8556 24.4854 52.8556 23.5859V23.0862C52.8556 22.0618 53.0014 21.1248 53.2929 20.2753C53.5844 19.4258 54.0008 18.6887 54.5421 18.0641C55.0918 17.4394 55.7581 16.9605 56.541 16.6274C57.3239 16.2859 58.2067 16.1152 59.1895 16.1152C60.1473 16.1152 60.9968 16.2734 61.738 16.5899C62.4793 16.9064 63.0997 17.3562 63.5994 17.9392C64.1075 18.5222 64.4906 19.2217 64.7488 20.0379C65.007 20.8458 65.1361 21.7453 65.1361 22.7364V24.2355H54.3922V21.8369H61.6006V21.5621C61.6006 21.0624 61.509 20.6168 61.3257 20.2253C61.1508 19.8256 60.8843 19.5091 60.5262 19.2759C60.1681 19.0427 59.71 18.9261 59.152 18.9261C58.6773 18.9261 58.2692 19.0302 57.9277 19.2384C57.5862 19.4466 57.3072 19.7381 57.0907 20.1129C56.8825 20.4877 56.7242 20.9291 56.6159 21.4371C56.516 21.9369 56.466 22.4865 56.466 23.0862V23.5859C56.466 24.1273 56.541 24.627 56.6909 25.0851C56.8491 25.5431 57.0699 25.9387 57.353 26.2719C57.6445 26.605 57.9943 26.8632 58.4024 27.0464C58.8189 27.2297 59.2894 27.3213 59.8141 27.3213C60.4637 27.3213 61.0676 27.1963 61.6256 26.9465C62.1919 26.6883 62.6791 26.301 63.0872 25.7847L64.8362 27.6836C64.5531 28.0917 64.1658 28.4831 63.6744 28.8579C63.1913 29.2327 62.6083 29.5408 61.9254 29.7824C61.2425 30.0156 60.4637 30.1322 59.5892 30.1322ZM77.529 11.6927V29.8823H73.7811V11.6927H77.529ZM84.7748 19.4633V22.3866H76.5045V19.4633H84.7748ZM85.6493 11.6927V14.6286H76.5045V11.6927H85.6493ZM93.5448 30.1322C92.4954 30.1322 91.5542 29.9656 90.7214 29.6324C89.8885 29.291 89.1806 28.8204 88.5976 28.2208C88.0229 27.6211 87.5815 26.9257 87.2734 26.1345C86.9652 25.3349 86.8111 24.4854 86.8111 23.5859V23.0862C86.8111 22.0618 86.9569 21.1248 87.2484 20.2753C87.5399 19.4258 87.9563 18.6887 88.4977 18.0641C89.0473 17.4394 89.7136 16.9605 90.4965 16.6274C91.2794 16.2859 92.1622 16.1152 93.145 16.1152C94.1028 16.1152 94.9523 16.2734 95.6935 16.5899C96.4348 16.9064 97.0553 17.3562 97.555 17.9392C98.063 18.5222 98.4461 19.2217 98.7043 20.0379C98.9625 20.8458 99.0916 21.7453 99.0916 22.7364V24.2355H88.3478V21.8369H95.5561V21.5621C95.5561 21.0624 95.4645 20.6168 95.2813 20.2253C95.1064 19.8256 94.8399 19.5091 94.4817 19.2759C94.1236 19.0427 93.6655 18.9261 93.1075 18.9261C92.6328 18.9261 92.2247 19.0302 91.8832 19.2384C91.5418 19.4466 91.2627 19.7381 91.0462 20.1129C90.838 20.4877 90.6797 20.9291 90.5715 21.4371C90.4715 21.9369 90.4216 22.4865 90.4216 23.0862V23.5859C90.4216 24.1273 90.4965 24.627 90.6464 25.0851C90.8047 25.5431 91.0254 25.9387 91.3086 26.2719C91.6001 26.605 91.9499 26.8632 92.358 27.0464C92.7744 27.2297 93.2449 27.3213 93.7696 27.3213C94.4193 27.3213 95.0231 27.1963 95.5811 26.9465C96.1474 26.6883 96.6347 26.301 97.0428 25.7847L98.7918 27.6836C98.5086 28.0917 98.1213 28.4831 97.6299 28.8579C97.1469 29.2327 96.5639 29.5408 95.8809 29.7824C95.198 30.0156 94.4193 30.1322 93.5448 30.1322ZM107.362 30.1322C106.312 30.1322 105.371 29.9656 104.538 29.6324C103.706 29.291 102.998 28.8204 102.415 28.2208C101.84 27.6211 101.399 26.9257 101.09 26.1345C100.782 25.3349 100.628 24.4854 100.628 23.5859V23.0862C100.628 22.0618 100.774 21.1248 101.065 20.2753C101.357 19.4258 101.773 18.6887 102.315 18.0641C102.864 17.4394 103.531 16.9605 104.314 16.6274C105.096 16.2859 105.979 16.1152 106.962 16.1152C107.92 16.1152 108.769 16.2734 109.511 16.5899C110.252 16.9064 110.872 17.3562 111.372 17.9392C111.88 18.5222 112.263 19.2217 112.521 20.0379C112.78 20.8458 112.909 21.7453 112.909 22.7364V24.2355H102.165V21.8369H109.373V21.5621C109.373 21.0624 109.282 20.6168 109.098 20.2253C108.923 19.8256 108.657 19.5091 108.299 19.2759C107.941 19.0427 107.483 18.9261 106.925 18.9261C106.45 18.9261 106.042 19.0302 105.7 19.2384C105.359 19.4466 105.08 19.7381 104.863 20.1129C104.655 20.4877 104.497 20.9291 104.389 21.4371C104.289 21.9369 104.239 22.4865 104.239 23.0862V23.5859C104.239 24.1273 104.314 24.627 104.464 25.0851C104.622 25.5431 104.842 25.9387 105.126 26.2719C105.417 26.605 105.767 26.8632 106.175 27.0464C106.591 27.2297 107.062 27.3213 107.587 27.3213C108.236 27.3213 108.84 27.1963 109.398 26.9465C109.965 26.6883 110.452 26.301 110.86 25.7847L112.609 27.6836C112.326 28.0917 111.938 28.4831 111.447 28.8579C110.964 29.2327 110.381 29.5408 109.698 29.7824C109.015 30.0156 108.236 30.1322 107.362 30.1322ZM122.94 26.934V10.6933H126.563V29.8823H123.303L122.94 26.934ZM114.395 23.2861V23.0237C114.395 21.991 114.512 21.054 114.745 20.2128C114.978 19.3633 115.32 18.6346 115.77 18.0266C116.219 17.4186 116.773 16.9481 117.431 16.6149C118.089 16.2818 118.839 16.1152 119.68 16.1152C120.471 16.1152 121.162 16.2818 121.754 16.6149C122.353 16.9481 122.861 17.4228 123.278 18.0391C123.702 18.6471 124.044 19.3675 124.302 20.2004C124.56 21.0249 124.748 21.9285 124.864 22.9113V23.486C124.748 24.4271 124.56 25.3016 124.302 26.1095C124.044 26.9173 123.702 27.6253 123.278 28.2332C122.861 28.8329 122.353 29.2993 121.754 29.6324C121.154 29.9656 120.454 30.1322 119.655 30.1322C118.814 30.1322 118.064 29.9614 117.406 29.62C116.756 29.2785 116.207 28.7996 115.757 28.1833C115.316 27.567 114.978 26.8424 114.745 26.0095C114.512 25.1767 114.395 24.2689 114.395 23.2861ZM117.993 23.0237V23.2861C117.993 23.8441 118.035 24.3646 118.118 24.8477C118.21 25.3307 118.356 25.7597 118.555 26.1345C118.764 26.5009 119.03 26.7882 119.355 26.9965C119.688 27.1963 120.092 27.2963 120.567 27.2963C121.183 27.2963 121.691 27.1589 122.091 26.884C122.491 26.6009 122.795 26.2136 123.003 25.7222C123.219 25.2308 123.344 24.6645 123.378 24.0232V22.3866C123.353 21.8619 123.278 21.3913 123.153 20.9749C123.036 20.5502 122.861 20.1879 122.628 19.888C122.403 19.5882 122.12 19.355 121.779 19.1884C121.445 19.0219 121.05 18.9386 120.592 18.9386C120.125 18.9386 119.726 19.0468 119.392 19.2634C119.059 19.4716 118.789 19.7589 118.58 20.1254C118.381 20.4919 118.231 20.9249 118.131 21.4247C118.039 21.916 117.993 22.4491 117.993 23.0237Z" fill="#E1E1E6"/>
</svg>
